name rise30.9205peak61.366fall85.3838.mot
datacolumns 19
datarows 35
range 23.76657800000000 23.82325300000000
endheader
time	ground_force1_vx	ground_force1_vy	ground_force1_vz	ground_force1_px	ground_force1_py	ground_force1_pz	ground_force2_vx	ground_force2_vy	ground_force2_vz	ground_force2_px	ground_force2_py	ground_force2_pz	ground_torque1_x	ground_torque1_y	ground_torque1_z	ground_torque2_x	ground_torque2_y	ground_torque2_z	
23.76657800000000	-46.27464400000000	824.48389399999996	56.72517500000000	0.14874400000000	0.00000000000000	0.09295700000000	0.00000000000000	0.00000000000000	0.00000000000000	0.00000000000000	0.00000000000000	0.00000000000000	0.00000000000000	23.22590300000000	0.00000000000000	0.00000000000000	0.00000000000000	0.00000000000000	
23.76824400000000	-46.53821400000000	822.85684600000002	56.68541800000000	0.14779300000000	0.00000000000000	0.09290900000000	0.00000000000000	0.00000000000000	0.00000000000000	0.00000000000000	0.00000000000000	0.00000000000000	0.00000000000000	23.13220400000000	0.00000000000000	0.00000000000000	0.00000000000000	0.00000000000000	
23.76990700000000	-46.80752000000000	821.10828800000002	56.62158300000000	0.14685000000000	0.00000000000000	0.09285700000000	-1.71064600000000	3.60392100000000	0.88587200000000	0.00000000000000	0.00000000000000	0.00000000000000	0.00000000000000	23.03518900000000	0.00000000000000	0.00000000000000	0.28691000000000	0.00000000000000	
23.77157400000000	-47.08327500000000	819.23755300000005	56.53319000000000	0.14591600000000	0.00000000000000	0.09280200000000	-2.73824300000000	7.19812300000000	1.53593000000000	0.00000000000000	0.00000000000000	0.00000000000000	0.00000000000000	22.93502400000000	0.00000000000000	0.00000000000000	0.51500400000000	0.00000000000000	
23.77324500000000	-47.36617900000000	817.24400300000002	56.41979900000000	0.14499300000000	0.00000000000000	0.09274200000000	-3.90076500000000	11.57477200000000	2.29603800000000	0.00000000000000	0.00000000000000	0.00000000000000	0.00000000000000	22.83187500000000	0.00000000000000	0.00000000000000	0.78485600000000	0.00000000000000	
23.77490700000000	-47.65691200000000	815.12702300000001	56.28101200000000	0.14408100000000	0.00000000000000	0.09267800000000	-5.16304100000000	16.69660800000000	3.15049000000000	0.00000000000000	0.00000000000000	0.00000000000000	0.00000000000000	22.72591100000000	0.00000000000000	0.00000000000000	1.09182800000000	0.00000000000000	
23.77657900000000	-47.95613100000000	812.88601500000004	56.11646700000000	0.14318200000000	0.00000000000000	0.09261000000000	-6.48109800000000	22.49279000000000	4.07765000000000	0.00000000000000	0.00000000000000	0.00000000000000	0.00000000000000	22.61729800000000	0.00000000000000	0.00000000000000	1.42917300000000	0.00000000000000	
23.77824600000000	-48.26446600000000	810.52039100000002	55.92584800000000	0.14229500000000	0.00000000000000	0.09253700000000	-7.80503300000000	28.86431100000000	5.05139000000000	0.35255500000000	0.00000000000000	-0.06949900000000	0.00000000000000	22.50620100000000	0.00000000000000	0.00000000000000	3.02694600000000	0.00000000000000	
23.77991300000000	-48.58251500000000	808.02957800000001	55.70888100000000	0.14142300000000	0.00000000000000	0.09245900000000	-9.08265300000000	35.69240500000000	6.04302900000000	0.35954000000000	0.00000000000000	-0.07010300000000	0.00000000000000	22.39278500000000	0.00000000000000	0.00000000000000	3.69636500000000	0.00000000000000	
23.78157700000000	-48.91084000000000	805.41300300000000	55.46533200000000	0.14056500000000	0.00000000000000	0.09237700000000	-10.26339000000000	42.84882500000000	7.02353800000000	0.36591500000000	0.00000000000000	-0.07062800000000	0.00000000000000	22.27720700000000	0.00000000000000	0.00000000000000	4.38028500000000	0.00000000000000	
23.78324300000000	-49.24996200000000	802.67009900000005	55.19501500000000	0.13972200000000	0.00000000000000	0.09229000000000	-11.30198800000000	50.20652000000000	7.96570200000000	0.37177900000000	0.00000000000000	-0.07108800000000	0.00000000000000	22.15962200000000	0.00000000000000	0.00000000000000	5.06161200000000	0.00000000000000	
23.78490800000000	-49.60035600000000	799.80029800000000	54.89778400000000	0.13889600000000	0.00000000000000	0.09219800000000	-12.16146600000000	57.64928100000000	8.84594700000000	0.37720800000000	0.00000000000000	-0.07149500000000	0.00000000000000	22.04018100000000	0.00000000000000	0.00000000000000	5.72476200000000	0.00000000000000	
23.78658000000000	-49.96245000000000	796.80302800000004	54.57354100000000	0.13808600000000	0.00000000000000	0.09210100000000	-12.81508600000000	65.07932800000000	9.64567300000000	0.38226000000000	0.00000000000000	-0.07186000000000	0.00000000000000	21.91902300000000	0.00000000000000	0.00000000000000	6.35662400000000	0.00000000000000	
23.78824700000000	-50.33661400000000	793.67771300000004	54.22222800000000	0.13729300000000	0.00000000000000	0.09199900000000	-13.24722500000000	72.42229200000000	10.35198100000000	0.38698400000000	0.00000000000000	-0.07218900000000	0.00000000000000	21.79628500000000	0.00000000000000	0.00000000000000	6.94718100000000	0.00000000000000	
23.78991300000000	-50.72316200000000	790.42376999999999	53.84383800000000	0.13651800000000	0.00000000000000	0.09189200000000	-13.45320800000000	79.62948900000001	10.95783700000000	0.39141900000000	0.00000000000000	-0.07248900000000	0.00000000000000	21.67209100000000	0.00000000000000	0.00000000000000	7.48979300000000	0.00000000000000	
23.79158100000000	-51.12234400000000	787.04061000000002	53.43840400000000	0.13576200000000	0.00000000000000	0.09178000000000	-13.43827500000000	86.67770100000000	11.46171700000000	0.39559500000000	0.00000000000000	-0.07276400000000	0.00000000000000	21.54655800000000	0.00000000000000	0.00000000000000	7.98114900000000	0.00000000000000	
23.79324800000000	-51.53434200000000	783.52763600000003	53.00600700000000	0.13502400000000	0.00000000000000	0.09166400000000	-13.21591300000000	93.56689700000000	11.86687200000000	0.39953900000000	0.00000000000000	-0.07301800000000	0.00000000000000	21.41979200000000	0.00000000000000	0.00000000000000	8.42096000000000	0.00000000000000	
23.79491200000000	-51.95926500000000	779.88424299999997	52.54677200000000	0.13430400000000	0.00000000000000	0.09154200000000	-12.80579100000000	100.31643300000000	12.18031600000000	0.40327200000000	0.00000000000000	-0.07325500000000	0.00000000000000	21.29188800000000	0.00000000000000	0.00000000000000	8.81144800000000	0.00000000000000	
23.79661000000000	-52.39715000000000	776.10982300000001	52.06087200000000	0.13360500000000	0.00000000000000	0.09141500000000	-12.23154300000000	106.96032500000000	12.41169600000000	0.40681400000000	0.00000000000000	-0.07347800000000	0.00000000000000	21.16293000000000	0.00000000000000	0.00000000000000	9.15671500000000	0.00000000000000	
23.79824100000000	-52.84795000000000	772.20375799999999	51.54852200000000	0.13292400000000	0.00000000000000	0.09128300000000	-11.51861500000000	113.54212900000000	12.57212900000000	0.41018100000000	0.00000000000000	-0.07368800000000	0.00000000000000	21.03299000000000	0.00000000000000	0.00000000000000	9.46207300000000	0.00000000000000	
23.79991200000000	-53.31153800000000	768.16543000000001	51.00998400000000	0.13226300000000	0.00000000000000	0.09114600000000	-10.69232000000000	120.10993100000000	12.67313600000000	0.41338400000000	0.00000000000000	-0.07388800000000	0.00000000000000	20.90212600000000	0.00000000000000	0.00000000000000	9.73337800000000	0.00000000000000	
23.80157600000000	-53.78769800000000	763.99422100000004	50.44556500000000	0.13162200000000	0.00000000000000	0.09100400000000	-9.77624400000000	126.71181600000000	12.72571300000000	0.41643700000000	0.00000000000000	-0.07408000000000	0.00000000000000	20.77038500000000	0.00000000000000	0.00000000000000	9.97644200000000	0.00000000000000	
23.80324300000000	-54.27612400000000	759.68951200000004	49.85561800000000	0.13100000000000	0.00000000000000	0.09085700000000	-8.79104700000000	133.39209399999999	12.73961000000000	0.41934800000000	0.00000000000000	-0.07426400000000	0.00000000000000	20.63779900000000	0.00000000000000	0.00000000000000	10.19654400000000	0.00000000000000	
23.80491300000000	-54.77641900000000	755.25069299999996	49.24053800000000	0.13039900000000	0.00000000000000	0.09070600000000	-7.75369800000000	140.18844200000001	12.72283100000000	0.42212700000000	0.00000000000000	-0.07444200000000	0.00000000000000	20.50438800000000	0.00000000000000	0.00000000000000	10.39806800000000	0.00000000000000	
23.80657900000000	-55.28808800000000	750.67715999999996	48.60076700000000	0.12981700000000	0.00000000000000	0.09055000000000	-6.67711400000000	147.13001800000001	12.68135000000000	0.42478200000000	0.00000000000000	-0.07461500000000	0.00000000000000	20.37015800000000	0.00000000000000	0.00000000000000	10.58427400000000	0.00000000000000	
23.80824200000000	-55.81053900000000	745.96832700000004	47.93679000000000	0.12925400000000	0.00000000000000	0.09038900000000	-5.57016900000000	154.23651799999999	12.61903000000000	0.42731900000000	0.00000000000000	-0.07478500000000	0.00000000000000	20.23510200000000	0.00000000000000	0.00000000000000	10.75719600000000	0.00000000000000	
23.80991400000000	-56.34308300000000	741.12362299999995	47.24913500000000	0.12871100000000	0.00000000000000	0.09022400000000	-4.43799500000000	161.51806500000001	12.53771900000000	0.42974400000000	0.00000000000000	-0.07495100000000	0.00000000000000	20.09919700000000	0.00000000000000	0.00000000000000	10.91764800000000	0.00000000000000	
23.81157500000000	-56.88492700000000	736.14250300000003	46.53837300000000	0.12818800000000	0.00000000000000	0.09005400000000	-3.28250600000000	168.97580900000000	12.43747200000000	0.43206200000000	0.00000000000000	-0.07511400000000	0.00000000000000	19.96241000000000	0.00000000000000	0.00000000000000	11.06533200000000	0.00000000000000	
23.81324900000000	-57.43517800000000	731.02445100000000	45.80511800000000	0.12768300000000	0.00000000000000	0.08987900000000	-2.10306300000000	176.60303600000000	12.31687500000000	0.43427900000000	0.00000000000000	-0.07527500000000	0.00000000000000	19.82469300000000	0.00000000000000	0.00000000000000	11.19900400000000	0.00000000000000	
23.81490700000000	-57.99284000000000	725.76898600000004	45.05002500000000	0.12719700000000	0.00000000000000	0.08970100000000	-0.89720700000000	184.38663199999999	12.17341100000000	0.43639800000000	0.00000000000000	-0.07543400000000	0.00000000000000	19.68598600000000	0.00000000000000	0.00000000000000	11.31669100000000	0.00000000000000	
23.81658900000000	-58.55681700000000	720.37567100000001	44.27379000000000	0.12672900000000	0.00000000000000	0.08951800000000	0.33861700000000	192.30871200000001	12.00385300000000	0.43842300000000	0.00000000000000	-0.07559300000000	0.00000000000000	19.54621700000000	0.00000000000000	0.00000000000000	11.41592300000000	0.00000000000000	
23.81824200000000	-59.12590900000000	714.84411799999998	43.47714900000000	0.12628000000000	0.00000000000000	0.08933200000000	1.60838900000000	200.34827600000000	11.80462800000000	0.44035800000000	0.00000000000000	-0.07575000000000	0.00000000000000	19.40530100000000	0.00000000000000	0.00000000000000	11.49396400000000	0.00000000000000	
23.81991300000000	-59.69881900000000	709.17399499999999	42.66087700000000	0.12584800000000	0.00000000000000	0.08914100000000	2.91592700000000	208.48275200000000	11.57215300000000	0.44220600000000	0.00000000000000	-0.07590700000000	0.00000000000000	19.26314200000000	0.00000000000000	0.00000000000000	11.54802800000000	0.00000000000000	
23.82158400000000	-60.27415000000000	703.36504100000002	41.82578800000000	0.12543300000000	0.00000000000000	0.08894700000000	4.26443900000000	216.68935099999999	11.30310200000000	0.44396800000000	0.00000000000000	-0.07606400000000	0.00000000000000	19.11963400000000	0.00000000000000	0.00000000000000	11.57545900000000	0.00000000000000	
23.82325300000000	-60.85040900000000	697.41706499999998	40.97273100000000	0.12503500000000	0.00000000000000	0.08874900000000	5.65619100000000	224.94615999999999	10.99462100000000	0.44564900000000	0.00000000000000	-0.07622100000000	0.00000000000000	18.97466100000000	0.00000000000000	0.00000000000000	11.57387900000000	0.00000000000000	
